<svg xmlns="http://www.w3.org/2000/svg" viewBox="0 0 639.46 245.9"><defs><style>.cls-1{fill:#023047;}.cls-2{fill:#ffb703;}</style></defs><g id="Layer_2" data-name="Layer 2"><g id="Layer_1-2" data-name="Layer 1"><polygon class="cls-1" points="119.33 140.99 75.63 140.99 46.99 104.9 36.1 116 36.1 140.99 0 140.99 0 0 36.1 0 36.1 73.68 72.97 37.81 115.72 37.81 72.95 82.15 119.33 140.99"/><path class="cls-2" d="M228.31,61.86A52.13,52.13,0,0,0,207.6,42.94q-13.22-6.84-30.12-6.84t-30,6.84a52.18,52.18,0,0,0-20.61,18.92,51.18,51.18,0,0,0-7.51,27.64A50.85,50.85,0,0,0,126.84,117a52.13,52.13,0,0,0,20.61,18.9q13.11,6.84,30,6.84t30.12-6.84A52.08,52.08,0,0,0,228.31,117a50.93,50.93,0,0,0,7.5-27.46A51.26,51.26,0,0,0,228.31,61.86ZM196.75,99a19.76,19.76,0,0,1-7.83,7.15,26.34,26.34,0,0,1-22.74,0A19.78,19.78,0,0,1,158.39,99a20.54,20.54,0,0,1,0-20.84A19.78,19.78,0,0,1,166.18,71a26.25,26.25,0,0,1,22.74,0,19.76,19.76,0,0,1,7.83,7.15,20.54,20.54,0,0,1,0,20.84Z"/><path class="cls-2" d="M354.85,61.86a52,52,0,0,0-20.71-18.92Q320.94,36.1,304,36.1t-30,6.84a52.28,52.28,0,0,0-20.62,18.92,51.26,51.26,0,0,0-7.5,27.64,50.93,50.93,0,0,0,7.5,27.46A52.23,52.23,0,0,0,274,135.86q13.11,6.84,30,6.84t30.11-6.84A52,52,0,0,0,354.85,117a50.85,50.85,0,0,0,7.51-27.46A51.18,51.18,0,0,0,354.85,61.86Zm-31.54,38a19.69,19.69,0,0,1-7.84,7.14,26.25,26.25,0,0,1-22.74,0,19.69,19.69,0,0,1-7.79-7.14,20.52,20.52,0,0,1,0-20.83,19.78,19.78,0,0,1,7.79-7.15,26.25,26.25,0,0,1,22.74,0A19.79,19.79,0,0,1,323.31,79a20.58,20.58,0,0,1,0,20.83Z"/><path class="cls-1" d="M447.87,36.1V68.79a43.56,43.56,0,0,0-4.37-.47c-1.27-.06-2.54-.1-3.8-.1q-11,0-17.86,6T415,93.68V141H378.89V37.81h34.59V50.27A33.5,33.5,0,0,1,423.06,42Q433.25,36.13,447.87,36.1Z"/><polygon class="cls-1" points="639.46 36.11 602.81 140.99 567.84 140.99 548.45 84.63 528.32 140.99 493.17 140.99 456.87 36.11 490.87 36.11 511.89 100.3 534 36.11 564.61 36.11 585.89 100.71 607.73 36.11 639.46 36.11"/><path class="cls-2" d="M134.79,169.4C152.73,175,170.2,179.81,187.86,183a296.17,296.17,0,0,0,53,4.84,298.79,298.79,0,0,0,53-4.88c17.66-3.15,35.13-8,53.09-13.5a8.93,8.93,0,0,1,10.54,12.67l-1.84,3.47a96.25,96.25,0,0,1-9.7,14.56,146.77,146.77,0,0,1-11.8,12.26c-4.24,3.66-8.74,7-13.36,10.28-4.7,3-9.59,5.78-14.59,8.4a147,147,0,0,1-65.31,14.85,148.42,148.42,0,0,1-65.28-15c-5-2.64-9.89-5.35-14.58-8.4-4.62-3.25-9.12-6.6-13.36-10.26-2.08-1.94-4.13-3.89-6.09-5.94s-3.92-4-5.73-6.26a97.5,97.5,0,0,1-9.73-14.49l-1.83-3.41a8.94,8.94,0,0,1,10.54-12.75Z"/></g></g></svg>